<svg width="16" height="16" viewBox="0 0 16 16" fill="none" xmlns="http://www.w3.org/2000/svg">
  <mask id="mask0_2284_8997" style="mask-type:luminance" maskUnits="userSpaceOnUse" x="0" y="0" width="16" height="16">
    <rect x="16" width="16" height="16" transform="rotate(90 16 0)" fill="white"/>
  </mask>
  <g mask="url(#mask0_2284_8997)">
    <path d="M13.8766 8C13.8766 8.41422 13.5409 8.75 13.1266 8.75L4.10765 8.74931L5.61018 10.3008C5.8722 10.5713 5.8898 10.9883 5.66733 11.2784L5.59338 11.3614C5.29589 11.6496 4.82108 11.6421 4.53286 11.3446L2.47231 9.21768C1.81482 8.53903 1.81482 7.46098 2.47231 6.78232L4.53286 4.65544C4.82108 4.35795 5.29589 4.35043 5.59338 4.63864C5.89088 4.92686 5.8984 5.40168 5.61018 5.69917L4.10765 7.24931L13.1266 7.25C13.5063 7.25 13.8201 7.53216 13.8698 7.89823L13.8766 8Z" fill="white" fill-opacity="0.85"/>
  </g>
</svg>
