<svg width="16" height="16" viewBox="0 0 16 16" fill="none" xmlns="http://www.w3.org/2000/svg">
  <path fill-rule="evenodd" clip-rule="evenodd" d="M10.8872 3.1817C10.6529 2.94738 10.273 2.94738 10.0387 3.1817L5.79605 7.42434C5.56173 7.65865 5.56173 8.03855 5.79605 8.27286L7.91737 10.3942C8.15168 10.6285 8.53158 10.6285 8.76589 10.3942L13.0085 6.15154C13.2429 5.91723 13.2429 5.53733 13.0085 5.30302L10.8872 3.1817ZM10.3922 4.5252C10.4313 4.48615 10.4946 4.48615 10.5337 4.5252L11.665 5.65657C11.7041 5.69562 11.7041 5.75894 11.665 5.79799L8.41234 9.05068C8.37329 9.08973 8.30997 9.08973 8.27092 9.05068L7.13955 7.91931C7.1005 7.88026 7.1005 7.81694 7.13955 7.77789L10.3922 4.5252ZM5.48955 9.09774C5.07994 8.68813 4.38431 8.83611 4.1769 9.37698L2.93885 12.6055C2.7839 13.0096 3.18065 13.4063 3.58473 13.2514L6.81324 12.0133C7.35411 11.8059 7.50209 11.1103 7.09249 10.7007L5.48955 9.09774ZM4.24663 11.9436L4.99404 10.2993L5.89094 11.1962L4.24663 11.9436Z" fill="white" fill-opacity="0.85"/>
</svg>
