<svg width="16" height="16" viewBox="0 0 16 16" fill="none" xmlns="http://www.w3.org/2000/svg">
  <path d="M12.6352 4.08423C12.8862 3.80858 13.3131 3.78858 13.5887 4.03955C13.8644 4.29053 13.8844 4.71745 13.6334 4.9931L7.57684 11.6451C7.52886 11.6978 7.47792 11.7478 7.42426 11.7947C6.64453 12.4761 5.46002 12.3964 4.77859 11.6167L2.32245 8.80622C2.07714 8.52552 2.10582 8.0991 2.38653 7.85378C2.66723 7.60847 3.09365 7.63715 3.33897 7.91786L5.7951 10.7283C5.98591 10.9466 6.31757 10.9689 6.53589 10.7781C6.55092 10.765 6.56518 10.751 6.57862 10.7363L12.6352 4.08423Z" fill="white" fill-opacity="0.85"/>
</svg>
