<svg width="16" height="16" viewBox="0 0 16 16" fill="none" xmlns="http://www.w3.org/2000/svg">
  <path fill-rule="evenodd" clip-rule="evenodd" d="M12.8 8C12.8 10.651 10.651 12.8 8 12.8C5.34903 12.8 3.2 10.651 3.2 8C3.2 5.34903 5.34903 3.2 8 3.2C10.651 3.2 12.8 5.34903 12.8 8ZM14 8C14 11.3137 11.3137 14 8 14C4.68629 14 2 11.3137 2 8C2 4.68629 4.68629 2 8 2C11.3137 2 14 4.68629 14 8ZM8.14142 8.98995C8.06331 8.91184 7.93668 8.91184 7.85857 8.98995L6.7272 10.1213C6.49289 10.3556 6.11299 10.3556 5.87867 10.1213C5.64436 9.88701 5.64436 9.50711 5.87868 9.27279L7.01005 8.14142C7.08815 8.06332 7.08815 7.93668 7.01005 7.85858L5.87867 6.72721C5.64436 6.49289 5.64436 6.11299 5.87867 5.87868C6.11299 5.64437 6.49289 5.64437 6.7272 5.87868L7.85857 7.01005C7.93668 7.08816 8.06331 7.08816 8.14142 7.01005L9.27279 5.87868C9.5071 5.64437 9.887 5.64437 10.1213 5.87868C10.3556 6.11299 10.3556 6.49289 10.1213 6.72721L8.98994 7.85858C8.91184 7.93668 8.91184 8.06332 8.98994 8.14142L10.1213 9.27279C10.3556 9.50711 10.3556 9.88701 10.1213 10.1213C9.887 10.3556 9.5071 10.3556 9.27279 10.1213L8.14142 8.98995Z" fill="white" fill-opacity="0.85"/>
</svg>
