<svg width="16" height="16" viewBox="0 0 16 16" fill="none" xmlns="http://www.w3.org/2000/svg">
  <path fill-rule="evenodd" clip-rule="evenodd" d="M3 3.2C3 3.08954 3.08954 3 3.2 3H4.8C4.91046 3 5 3.08954 5 3.2V4.8C5 4.91046 4.91046 5 4.8 5H3.2C3.08954 5 3 4.91046 3 4.8V3.2ZM5 5.2C5 5.08954 5.08954 5 5.2 5H6.8C6.91046 5 7 5.08954 7 5.2V6.8C7 6.91046 6.91046 7 6.8 7H5.2C5.08954 7 5 6.91046 5 6.8V5.2ZM7.2 7C7.08954 7 7 7.08954 7 7.2V8.8C7 8.91046 7.08954 9 7.2 9H8.8C8.91046 9 9 8.91046 9 8.8V7.2C9 7.08954 8.91046 7 8.8 7H7.2ZM9 9.2C9 9.08954 9.08954 9 9.2 9H10.8C10.9105 9 11 9.08954 11 9.2V10.8C11 10.9105 10.9105 11 10.8 11H9.2C9.08954 11 9 10.9105 9 10.8V9.2ZM11.2 11C11.0895 11 11 11.0895 11 11.2V12.8C11 12.9105 11.0895 13 11.2 13H12.8C12.9105 13 13 12.9105 13 12.8V11.2C13 11.0895 12.9105 11 12.8 11H11.2ZM5 9.2C5 9.08954 5.08954 9 5.2 9H6.8C6.91046 9 7 9.08954 7 9.2V10.8C7 10.9105 6.91046 11 6.8 11H5.2C5.08954 11 5 10.9105 5 10.8V9.2ZM3.2 11C3.08954 11 3 11.0895 3 11.2V12.8C3 12.9105 3.08954 13 3.2 13H4.8C4.91046 13 5 12.9105 5 12.8V11.2C5 11.0895 4.91046 11 4.8 11H3.2ZM9 5.2C9 5.08954 9.08954 5 9.2 5H10.8C10.9105 5 11 5.08954 11 5.2V6.8C11 6.91046 10.9105 7 10.8 7H9.2C9.08954 7 9 6.91046 9 6.8V5.2ZM11.2 3C11.0895 3 11 3.08954 11 3.2V4.8C11 4.91046 11.0895 5 11.2 5H12.8C12.9105 5 13 4.91046 13 4.8V3.2C13 3.08954 12.9105 3 12.8 3H11.2ZM3 7.2C3 7.08954 3.08954 7 3.2 7H4.8C4.91046 7 5 7.08954 5 7.2V8.8C5 8.91046 4.91046 9 4.8 9H3.2C3.08954 9 3 8.91046 3 8.8V7.2ZM11.2 7C11.0895 7 11 7.08954 11 7.2V8.8C11 8.91046 11.0895 9 11.2 9H12.8C12.9105 9 13 8.91046 13 8.8V7.2C13 7.08954 12.9105 7 12.8 7H11.2ZM7 3.2C7 3.08954 7.08954 3 7.2 3H8.8C8.91046 3 9 3.08954 9 3.2V4.8C9 4.91046 8.91046 5 8.8 5H7.2C7.08954 5 7 4.91046 7 4.8V3.2ZM7.2 11C7.08954 11 7 11.0895 7 11.2V12.8C7 12.9105 7.08954 13 7.2 13H8.8C8.91046 13 9 12.9105 9 12.8V11.2C9 11.0895 8.91046 11 8.8 11H7.2Z" fill="white" fill-opacity="0.85"/>
</svg>
